<svg width="2000" height="2000" viewBox="0 0 2000 2000" fill="none" xmlns="http://www.w3.org/2000/svg">
<g filter="url(#filter0_d_133_2)">
<rect x="42" y="42" width="1916" height="1916" rx="100" fill="white"/>
<path d="M1171.6 315.004C1261.48 315.004 1350.47 332.709 1433.51 367.108C1516.54 401.507 1591.99 451.927 1655.54 515.488C1719.1 579.05 1769.51 654.508 1803.9 737.555C1838.3 820.602 1856 909.611 1856 999.501L1513.8 999.501C1513.8 954.556 1504.95 910.051 1487.75 868.528C1470.55 827.004 1445.35 789.275 1413.57 757.495C1381.8 725.714 1344.07 700.504 1302.55 683.304C1261.04 666.105 1216.54 657.252 1171.6 657.252V315.004Z" fill="#08A78B" fill-opacity="0.8"/>
<path d="M1856 999.503C1856 1089.39 1838.3 1178.4 1803.9 1261.45C1769.51 1344.5 1719.09 1419.95 1655.54 1483.52C1591.99 1547.08 1516.54 1597.5 1433.51 1631.9C1350.47 1666.3 1261.48 1684 1171.6 1684V1341.75C1216.54 1341.75 1261.04 1332.9 1302.55 1315.7C1344.07 1298.5 1381.79 1273.29 1413.57 1241.51C1445.35 1209.73 1470.55 1172 1487.75 1130.48C1504.95 1088.95 1513.8 1044.45 1513.8 999.503H1856Z" fill="#009EF5"/>
<path d="M829.399 1341.75C739.523 1341.75 650.526 1324.05 567.491 1289.65C484.456 1255.25 409.008 1204.83 345.456 1141.27C281.904 1077.71 231.491 1002.25 197.097 919.201C162.702 836.154 145 747.144 145 657.255L487.2 657.255C487.2 702.2 496.051 746.704 513.248 788.228C530.445 829.751 555.651 867.481 587.427 899.261C619.204 931.042 656.927 956.252 698.445 973.451C739.963 990.651 784.461 999.504 829.399 999.504V1341.75Z" fill="#009EF5"/>
<path d="M145.264 1683.43C145.264 1638.49 154.115 1593.98 171.312 1552.46C188.509 1510.94 213.715 1473.21 245.492 1441.43C277.268 1409.64 314.992 1384.43 356.509 1367.24C398.027 1350.04 442.525 1341.18 487.463 1341.18L487.463 1683.43L145.264 1683.43Z" fill="#009EF5"/>
<path d="M829.405 1341.75C829.405 1386.69 820.553 1431.2 803.356 1472.72C786.159 1514.25 760.953 1551.97 729.177 1583.75C697.4 1615.54 659.677 1640.75 618.159 1657.95C576.641 1675.14 532.143 1684 487.205 1684L487.205 1341.75H829.405Z" fill="#009EF5"/>
<path d="M1171.63 315C1171.63 359.945 1162.78 404.449 1145.59 445.973C1128.39 487.496 1103.18 525.226 1071.41 557.006C1039.63 588.787 1001.91 613.997 960.389 631.197C918.871 648.396 874.373 657.249 829.434 657.249L829.435 315L1171.63 315Z" fill="#FFA800"/>
<path d="M1171.63 1683.99C1126.69 1683.99 1082.19 1675.14 1040.67 1657.94C999.156 1640.74 961.432 1615.53 929.656 1583.75C897.88 1551.97 872.674 1514.24 855.477 1472.72C838.28 1431.19 829.428 1386.69 829.428 1341.74L1171.63 1341.74V1683.99Z" fill="#08A78B" fill-opacity="0.8"/>
<path d="M829.417 657.252H1171.62V1341.75H829.417V657.252Z" fill="#08A78B" fill-opacity="0.8"/>
<path d="M145.038 315.001H487.237V657.249H145.038V315.001Z" fill="#08A78B" fill-opacity="0.8"/>
</g>
<defs>
<filter id="filter0_d_133_2" x="31" y="31" width="1940" height="1940" filterUnits="userSpaceOnUse" color-interpolation-filters="sRGB">
<feFlood flood-opacity="0" result="BackgroundImageFix"/>
<feColorMatrix in="SourceAlpha" type="matrix" values="0 0 0 0 0 0 0 0 0 0 0 0 0 0 0 0 0 0 127 0" result="hardAlpha"/>
<feMorphology radius="8" operator="dilate" in="SourceAlpha" result="effect1_dropShadow_133_2"/>
<feOffset dx="1" dy="1"/>
<feGaussianBlur stdDeviation="2"/>
<feComposite in2="hardAlpha" operator="out"/>
<feColorMatrix type="matrix" values="0 0 0 0 0 0 0 0 0 0 0 0 0 0 0 0 0 0 0.07 0"/>
<feBlend mode="normal" in2="BackgroundImageFix" result="effect1_dropShadow_133_2"/>
<feBlend mode="normal" in="SourceGraphic" in2="effect1_dropShadow_133_2" result="shape"/>
</filter>
</defs>
</svg>
