<svg width="4997" height="1401" viewBox="0 0 4997 1401" fill="none" xmlns="http://www.w3.org/2000/svg">
<path d="M1786.6 247.599C1786.6 259.199 1782.6 268.866 1774.6 276.599C1766.73 284.199 1754.67 287.999 1738.4 287.999H1711.6V346.199H1693.4V206.799H1738.4C1754.13 206.799 1766.07 210.599 1774.2 218.199C1782.47 225.799 1786.6 235.599 1786.6 247.599ZM1738.4 272.999C1748.53 272.999 1756 270.799 1760.8 266.399C1765.6 261.999 1768 255.733 1768 247.599C1768 230.399 1758.13 221.799 1738.4 221.799H1711.6V272.999H1738.4ZM1874.42 347.599C1861.49 347.599 1849.69 344.599 1839.02 338.599C1828.35 332.466 1819.89 323.999 1813.62 313.199C1807.49 302.266 1804.42 289.999 1804.42 276.399C1804.42 262.799 1807.49 250.599 1813.62 239.799C1819.89 228.866 1828.35 220.399 1839.02 214.399C1849.69 208.266 1861.49 205.199 1874.42 205.199C1887.49 205.199 1899.35 208.266 1910.02 214.399C1920.69 220.399 1929.09 228.799 1935.22 239.599C1941.35 250.399 1944.42 262.666 1944.42 276.399C1944.42 290.133 1941.35 302.399 1935.22 313.199C1929.09 323.999 1920.69 332.466 1910.02 338.599C1899.35 344.599 1887.49 347.599 1874.42 347.599ZM1874.42 331.799C1884.15 331.799 1892.89 329.533 1900.62 324.999C1908.49 320.466 1914.62 313.999 1919.02 305.599C1923.55 297.199 1925.82 287.466 1925.82 276.399C1925.82 265.199 1923.55 255.466 1919.02 247.199C1914.62 238.799 1908.55 232.333 1900.82 227.799C1893.09 223.266 1884.29 220.999 1874.42 220.999C1864.55 220.999 1855.75 223.266 1848.02 227.799C1840.29 232.333 1834.15 238.799 1829.62 247.199C1825.22 255.466 1823.02 265.199 1823.02 276.399C1823.02 287.466 1825.22 297.199 1829.62 305.599C1834.15 313.999 1840.29 320.466 1848.02 324.999C1855.89 329.533 1864.69 331.799 1874.42 331.799ZM2043.85 346.199L2010.65 289.199H1988.65V346.199H1970.45V206.799H2015.45C2025.98 206.799 2034.85 208.599 2042.05 212.199C2049.38 215.799 2054.85 220.666 2058.45 226.799C2062.05 232.933 2063.85 239.933 2063.85 247.799C2063.85 257.399 2061.05 265.866 2055.45 273.199C2049.98 280.533 2041.71 285.399 2030.65 287.799L2065.65 346.199H2043.85ZM1988.65 274.599H2015.45C2025.31 274.599 2032.71 272.199 2037.65 267.399C2042.58 262.466 2045.05 255.933 2045.05 247.799C2045.05 239.533 2042.58 233.133 2037.65 228.599C2032.85 224.066 2025.45 221.799 2015.45 221.799H1988.65V274.599ZM2179.93 206.799V221.599H2141.93V346.199H2123.73V221.599H2085.53V206.799H2179.93ZM2286.73 315.199H2225.93L2214.73 346.199H2195.53L2245.93 207.599H2266.93L2317.13 346.199H2297.93L2286.73 315.199ZM2281.53 300.399L2256.33 229.999L2231.13 300.399H2281.53ZM2359.3 331.399H2408.1V346.199H2341.1V206.799H2359.3V331.399Z" fill="#009EF5"/>
<path d="M1693.98 1197.2V1051.74H1715.93V1121.2H1717.7L1778.71 1051.74H1806.34L1747.67 1117.23L1806.55 1197.2H1780.13L1733.11 1132.21L1715.93 1151.96V1197.2H1693.98ZM1943.92 1124.47C1943.92 1140 1941.07 1153.35 1935.39 1164.53C1929.71 1175.66 1921.92 1184.23 1912.03 1190.24C1902.18 1196.2 1890.98 1199.19 1878.43 1199.19C1865.84 1199.19 1854.59 1196.2 1844.7 1190.24C1834.85 1184.23 1827.08 1175.63 1821.4 1164.46C1815.72 1153.28 1812.88 1139.95 1812.88 1124.47C1812.88 1108.94 1815.72 1095.61 1821.4 1084.49C1827.08 1073.31 1834.85 1064.74 1844.7 1058.78C1854.59 1052.76 1865.84 1049.76 1878.43 1049.76C1890.98 1049.76 1902.18 1052.76 1912.03 1058.78C1921.92 1064.74 1929.71 1073.31 1935.39 1084.49C1941.07 1095.61 1943.92 1108.94 1943.92 1124.47ZM1922.18 1124.47C1922.18 1112.63 1920.26 1102.67 1916.43 1094.57C1912.64 1086.43 1907.43 1080.27 1900.8 1076.11C1894.22 1071.89 1886.77 1069.78 1878.43 1069.78C1870.05 1069.78 1862.57 1071.89 1855.99 1076.11C1849.41 1080.27 1844.2 1086.43 1840.36 1094.57C1836.58 1102.67 1834.68 1112.63 1834.68 1124.47C1834.68 1136.31 1836.58 1146.3 1840.36 1154.44C1844.2 1162.54 1849.41 1168.7 1855.99 1172.91C1862.57 1177.08 1870.05 1179.16 1878.43 1179.16C1886.77 1179.16 1894.22 1177.08 1900.8 1172.91C1907.43 1168.7 1912.64 1162.54 1916.43 1154.44C1920.26 1146.3 1922.18 1136.31 1922.18 1124.47ZM1955.85 1070.64V1051.74H2068.42V1070.64H2023.04V1197.2H2001.17V1070.64H1955.85ZM2086.4 1197.2H2063.1L2115.45 1051.74H2140.8L2193.15 1197.2H2169.85L2128.73 1078.17H2127.59L2086.4 1197.2ZM2090.31 1140.24H2165.87V1158.7H2090.31V1140.24ZM2246.54 1051.74H2280.99L2314.15 1114.39H2315.58L2348.74 1051.74H2383.19L2330.13 1145.78V1197.2H2299.6V1145.78L2246.54 1051.74ZM2514.86 1124.47C2514.86 1140.33 2511.85 1153.83 2505.84 1164.95C2499.88 1176.08 2491.73 1184.58 2481.41 1190.45C2471.14 1196.28 2459.58 1199.19 2446.75 1199.19C2433.82 1199.19 2422.22 1196.25 2411.95 1190.38C2401.67 1184.51 2393.55 1176.01 2387.59 1164.88C2381.62 1153.76 2378.64 1140.29 2378.64 1124.47C2378.64 1108.61 2381.62 1095.12 2387.59 1083.99C2393.55 1072.86 2401.67 1064.39 2411.95 1058.56C2422.22 1052.69 2433.82 1049.76 2446.75 1049.76C2459.58 1049.76 2471.14 1052.69 2481.41 1058.56C2491.73 1064.39 2499.88 1072.86 2505.84 1083.99C2511.85 1095.12 2514.86 1108.61 2514.86 1124.47ZM2483.68 1124.47C2483.68 1114.2 2482.14 1105.53 2479.07 1098.48C2476.04 1091.42 2471.75 1086.07 2466.21 1082.43C2460.67 1078.78 2454.18 1076.96 2446.75 1076.96C2439.32 1076.96 2432.83 1078.78 2427.29 1082.43C2421.75 1086.07 2417.44 1091.42 2414.36 1098.48C2411.33 1105.53 2409.82 1114.2 2409.82 1124.47C2409.82 1134.75 2411.33 1143.41 2414.36 1150.47C2417.44 1157.52 2421.75 1162.87 2427.29 1166.52C2432.83 1170.16 2439.32 1171.99 2446.75 1171.99C2454.18 1171.99 2460.67 1170.16 2466.21 1166.52C2471.75 1162.87 2476.04 1157.52 2479.07 1150.47C2482.14 1143.41 2483.68 1134.75 2483.68 1124.47ZM2624.09 1098.76C2623.1 1095.31 2621.7 1092.25 2619.9 1089.6C2618.1 1086.9 2615.9 1084.63 2613.3 1082.78C2610.74 1080.89 2607.8 1079.44 2604.49 1078.45C2601.22 1077.45 2597.6 1076.96 2593.62 1076.96C2586.19 1076.96 2579.65 1078.8 2574.02 1082.5C2568.43 1086.19 2564.08 1091.56 2560.95 1098.62C2557.83 1105.63 2556.26 1114.2 2556.26 1124.33C2556.26 1134.46 2557.8 1143.08 2560.88 1150.18C2563.96 1157.28 2568.31 1162.71 2573.95 1166.45C2579.58 1170.14 2586.24 1171.99 2593.91 1171.99C2600.87 1171.99 2606.81 1170.76 2611.73 1168.29C2616.7 1165.78 2620.49 1162.26 2623.1 1157.71C2625.75 1153.17 2627.07 1147.79 2627.07 1141.59L2633.32 1142.51H2595.82V1119.36H2656.69V1137.68C2656.69 1150.47 2653.99 1161.45 2648.59 1170.64C2643.2 1179.77 2635.76 1186.83 2626.29 1191.8C2616.82 1196.73 2605.98 1199.19 2593.76 1199.19C2580.13 1199.19 2568.15 1196.18 2557.83 1190.17C2547.5 1184.11 2539.46 1175.51 2533.68 1164.39C2527.95 1153.21 2525.09 1139.95 2525.09 1124.61C2525.09 1112.82 2526.79 1102.31 2530.2 1093.08C2533.66 1083.8 2538.48 1075.94 2544.69 1069.5C2550.89 1063.06 2558.11 1058.16 2566.35 1054.8C2574.59 1051.44 2583.51 1049.76 2593.12 1049.76C2601.36 1049.76 2609.03 1050.96 2616.14 1053.38C2623.24 1055.75 2629.54 1059.11 2635.03 1063.46C2640.57 1067.82 2645.09 1073 2648.59 1079.02C2652.1 1084.98 2654.35 1091.56 2655.34 1098.76H2624.09ZM2655.41 1051.74H2689.85L2723.02 1114.39H2724.44L2757.61 1051.74H2792.06L2739 1145.78V1197.2H2708.46V1145.78L2655.41 1051.74ZM2809.08 1197.2H2776.13L2826.34 1051.74H2865.97L2916.11 1197.2H2883.16L2846.72 1084.98H2845.59L2809.08 1197.2ZM2807.02 1140.03H2884.86V1164.03H2807.02V1140.03ZM2923.62 1197.2V1051.74H2954.37V1115.88H2956.29L3008.63 1051.74H3045.49L2991.52 1116.87L3046.13 1197.2H3009.34L2969.5 1137.4L2954.37 1155.86V1197.2H2923.62ZM3076.58 1197.2H3043.63L3093.84 1051.74H3133.47L3183.61 1197.2H3150.66L3114.22 1084.98H3113.09L3076.58 1197.2ZM3074.52 1140.03H3152.36V1164.03H3074.52V1140.03ZM3191.12 1197.2V1051.74H3248.5C3259.49 1051.74 3268.86 1053.71 3276.63 1057.64C3284.44 1061.52 3290.38 1067.04 3294.46 1074.19C3298.58 1081.29 3300.64 1089.65 3300.64 1099.26C3300.64 1108.92 3298.55 1117.23 3294.39 1124.19C3290.22 1131.1 3284.18 1136.4 3276.27 1140.1C3268.42 1143.79 3258.9 1145.64 3247.72 1145.64H3209.3V1120.92H3242.75C3248.62 1120.92 3253.5 1120.12 3257.38 1118.51C3261.27 1116.9 3264.15 1114.48 3266.05 1111.26C3267.99 1108.04 3268.96 1104.04 3268.96 1099.26C3268.96 1094.43 3267.99 1090.36 3266.05 1087.04C3264.15 1083.73 3261.24 1081.22 3257.31 1079.51C3253.43 1077.76 3248.53 1076.89 3242.61 1076.89H3221.87V1197.2H3191.12ZM3269.67 1131.01L3305.82 1197.2H3271.87L3236.5 1131.01H3269.67ZM3306.83 1077.1V1051.74H3426.29V1077.1H3381.76V1197.2H3351.36V1077.1H3306.83ZM3443.26 1197.2H3410.31L3460.52 1051.74H3500.15L3550.29 1197.2H3517.34L3480.9 1084.98H3479.77L3443.26 1197.2ZM3441.2 1140.03H3519.04V1164.03H3441.2V1140.03Z" fill="#FFA800"/>
<path d="M1882.69 945.933C1847.98 945.933 1816.87 940.298 1789.37 929.027C1761.87 917.756 1739.78 901.076 1723.1 878.986C1706.87 856.896 1698.3 830.297 1697.4 799.19H1820.48C1822.28 816.772 1828.37 830.297 1838.73 839.764C1849.1 848.781 1862.63 853.289 1879.31 853.289C1896.44 853.289 1909.96 849.457 1919.88 841.793C1929.8 833.678 1934.76 822.633 1934.76 808.658C1934.76 796.936 1930.7 787.244 1922.59 779.58C1914.92 771.916 1905.23 765.604 1893.51 760.645C1882.24 755.686 1866.01 750.051 1844.82 743.739C1814.16 734.272 1789.14 724.805 1769.76 715.337C1750.37 705.87 1733.69 691.895 1719.72 673.411C1705.74 654.927 1698.75 630.808 1698.75 601.054C1698.75 556.874 1714.76 522.386 1746.77 497.59C1778.78 472.344 1820.48 459.721 1871.87 459.721C1924.17 459.721 1966.32 472.344 1998.33 497.59C2030.33 522.386 2047.47 557.099 2049.72 601.73H1924.62C1923.71 586.402 1918.08 574.456 1907.71 565.89C1897.34 556.874 1884.04 552.365 1867.81 552.365C1853.84 552.365 1842.57 556.197 1834 563.861C1825.44 571.074 1821.15 581.669 1821.15 595.644C1821.15 610.972 1828.37 622.919 1842.79 631.485C1857.22 640.05 1879.76 649.292 1910.42 659.21C1941.07 669.579 1965.87 679.497 1984.8 688.964C2004.19 698.432 2020.87 712.182 2034.84 730.215C2048.82 748.247 2055.81 771.465 2055.81 799.867C2055.81 826.916 2048.82 851.486 2034.84 873.576C2021.32 895.666 2001.48 913.248 1975.33 926.322C1949.19 939.396 1918.3 945.933 1882.69 945.933ZM2381.91 857.346H2204.73L2176.33 941.199H2055.29L2227.05 466.484H2360.94L2532.71 941.199H2410.31L2381.91 857.346ZM2352.15 768.084L2293.32 594.292L2235.17 768.084H2352.15ZM2885.91 466.484V559.128H2760.13V941.199H2644.49V559.128H2518.71V466.484H2885.91ZM3016.98 466.484V750.502C3016.98 778.903 3023.96 800.768 3037.94 816.096C3051.91 831.424 3072.43 839.088 3099.48 839.088C3126.52 839.088 3147.26 831.424 3161.69 816.096C3176.12 800.768 3183.33 778.903 3183.33 750.502V466.484H3298.96V749.825C3298.96 792.203 3289.95 828.043 3271.91 857.346C3253.88 886.65 3229.54 908.74 3198.88 923.617C3168.68 938.494 3134.87 945.933 3097.45 945.933C3060.03 945.933 3026.44 938.72 2996.69 924.293C2967.38 909.416 2944.17 887.326 2927.04 858.023C2909.9 828.268 2901.34 792.203 2901.34 749.825V466.484H3016.98ZM3525.56 468.512C3577.85 468.512 3622.71 477.98 3660.13 496.914C3697.54 515.849 3726.17 543.123 3746.01 578.738C3765.84 614.353 3775.76 656.731 3775.76 705.87C3775.76 754.559 3765.84 796.711 3746.01 832.326C3726.17 867.49 3697.54 894.539 3660.13 913.474C3622.71 931.957 3577.85 941.199 3525.56 941.199H3385.57V468.512H3525.56ZM3525.56 901.978C3591.38 901.978 3641.42 884.846 3675.68 850.584C3710.39 815.871 3727.75 767.633 3727.75 705.87C3727.75 643.657 3710.39 595.193 3675.68 560.48C3641.42 525.316 3591.38 507.734 3525.56 507.734H3432.91V901.978H3525.56ZM4055.76 828.945H3840.72L3799.47 941.199H3749.43L3921.86 474.599H3975.29L4147.05 941.199H4097.01L4055.76 828.945ZM4041.56 789.723L3948.24 534.107L3854.92 789.723H4041.56ZM4418.45 468.512V507.734H4287.26V941.199H4239.93V507.734H4108.06V468.512H4418.45ZM4685.92 828.945H4470.88L4429.63 941.199H4379.59L4552.03 474.599H4605.45L4777.21 941.199H4727.17L4685.92 828.945ZM4671.72 789.723L4578.4 534.107L4485.08 789.723H4671.72Z" fill="#535353"/>
<path d="M949.4 201.003C1015.01 201.003 1079.97 213.925 1140.59 239.033C1201.2 264.14 1256.28 300.94 1302.67 347.332C1349.06 393.725 1385.86 448.8 1410.97 509.414C1436.08 570.029 1449 634.995 1449 700.603L1199.2 700.603C1199.2 667.799 1192.74 635.316 1180.19 605.009C1167.63 574.702 1149.23 547.164 1126.04 523.968C1102.84 500.772 1075.3 482.371 1044.99 469.818C1014.69 457.264 982.205 450.803 949.4 450.803V201.003Z" fill="#08A78B" fill-opacity="0.8"/>
<path d="M1449 700.605C1449 766.213 1436.08 831.179 1410.97 891.794C1385.86 952.408 1349.06 1007.48 1302.67 1053.88C1256.28 1100.27 1201.2 1137.07 1140.59 1162.18C1079.97 1187.28 1015.01 1200.21 949.399 1200.21V950.405C982.203 950.405 1014.69 943.944 1044.99 931.39C1075.3 918.837 1102.84 900.436 1126.03 877.24C1149.23 854.044 1167.63 826.506 1180.18 796.199C1192.74 765.892 1199.2 733.409 1199.2 700.605H1449Z" fill="#009EF5"/>
<path d="M699.599 950.405C633.991 950.405 569.025 937.483 508.411 912.376C447.797 887.268 392.721 850.468 346.329 804.076C299.937 757.684 263.137 702.608 238.03 641.994C212.923 581.379 200 516.413 200 450.805L449.8 450.805C449.8 483.609 456.261 516.092 468.814 546.399C481.368 576.706 499.768 604.244 522.964 627.44C546.16 650.636 573.698 669.037 604.005 681.59C634.312 694.144 666.795 700.605 699.599 700.605V950.405Z" fill="#009EF5"/>
<path d="M200.192 1199.79C200.192 1166.99 206.654 1134.5 219.207 1104.2C231.761 1073.89 250.161 1046.35 273.357 1023.15C296.553 999.959 324.091 981.559 354.398 969.005C384.705 956.451 417.188 949.99 449.992 949.99L449.992 1199.79L200.192 1199.79Z" fill="#009EF5"/>
<path d="M699.603 950.403C699.603 983.207 693.142 1015.69 680.588 1046C668.035 1076.3 649.635 1103.84 626.439 1127.04C603.243 1150.23 575.705 1168.63 545.398 1181.19C515.091 1193.74 482.608 1200.2 449.804 1200.2L449.804 950.403H699.603Z" fill="#009EF5"/>
<path d="M949.425 201C949.425 233.804 942.964 266.287 930.41 296.594C917.856 326.902 899.456 354.439 876.26 377.636C853.064 400.832 825.526 419.232 795.219 431.785C764.912 444.339 732.429 450.8 699.625 450.8L699.625 201L949.425 201Z" fill="#FFA800"/>
<path d="M949.42 1200.2C916.616 1200.2 884.133 1193.74 853.826 1181.18C823.519 1168.63 795.981 1150.23 772.785 1127.03C749.589 1103.84 731.189 1076.3 718.635 1045.99C706.082 1015.69 699.621 983.203 699.621 950.399L949.42 950.399V1200.2Z" fill="#08A78B" fill-opacity="0.8"/>
<path d="M699.612 450.803H949.412V950.403H699.612V450.803Z" fill="#08A78B" fill-opacity="0.8"/>
<path d="M200.027 201.001H449.827V450.801H200.027V201.001Z" fill="#08A78B" fill-opacity="0.8"/>
</svg>
